<svg width="370" height="130" viewBox="0 0 370 130" fill="none" xmlns="http://www.w3.org/2000/svg">
<path d="M62.184 52.264V53.104L46.224 81.034H53.196C54.372 81.034 55.394 80.894 56.262 80.614C57.158 80.306 57.9 79.844 58.488 79.228C59.104 78.584 59.594 77.73 59.958 76.666C60.322 75.602 60.574 74.3 60.714 72.76H61.68C61.596 73.656 61.554 74.832 61.554 76.288C61.554 76.848 61.568 77.66 61.596 78.724C61.652 79.788 61.736 80.88 61.848 82C60.812 81.944 59.678 81.916 58.446 81.916C57.214 81.888 55.982 81.874 54.75 81.874C53.546 81.874 52.426 81.874 51.39 81.874C49.682 81.874 47.89 81.888 46.014 81.916C44.138 81.916 42.374 81.944 40.722 82V81.16L56.766 53.23H49.794C48.562 53.23 47.512 53.37 46.644 53.65C45.804 53.93 45.09 54.378 44.502 54.994C43.942 55.61 43.494 56.45 43.158 57.514C42.822 58.55 42.57 59.824 42.402 61.336H41.436C41.492 60.916 41.52 60.412 41.52 59.824C41.548 59.236 41.562 58.62 41.562 57.976C41.562 57.416 41.534 56.604 41.478 55.54C41.45 54.476 41.38 53.384 41.268 52.264C42.276 52.292 43.368 52.32 44.544 52.348C45.748 52.376 46.938 52.39 48.114 52.39C49.318 52.39 50.41 52.39 51.39 52.39C53.098 52.39 54.918 52.39 56.85 52.39C58.782 52.362 60.56 52.32 62.184 52.264ZM88.5465 86.41V88.888H69.0165V86.41H88.5465ZM116.421 52.264C116.309 53.328 116.225 54.364 116.169 55.372C116.141 56.352 116.127 57.108 116.127 57.64C116.127 58.172 116.141 58.676 116.169 59.152C116.197 59.628 116.225 60.02 116.253 60.328H115.287C115.091 58.536 114.783 57.122 114.363 56.086C113.971 55.05 113.369 54.322 112.557 53.902C111.773 53.454 110.667 53.23 109.239 53.23H106.341C105.445 53.23 104.759 53.314 104.283 53.482C103.835 53.622 103.527 53.93 103.359 54.406C103.191 54.854 103.107 55.568 103.107 56.548V77.716C103.107 78.668 103.191 79.382 103.359 79.858C103.527 80.334 103.835 80.656 104.283 80.824C104.759 80.964 105.445 81.034 106.341 81.034H109.071C110.667 81.034 111.927 80.782 112.851 80.278C113.803 79.774 114.517 78.948 114.993 77.8C115.497 76.652 115.875 75.084 116.127 73.096H117.093C117.009 73.908 116.967 74.972 116.967 76.288C116.967 76.848 116.981 77.66 117.009 78.724C117.065 79.788 117.149 80.88 117.261 82C115.833 81.944 114.223 81.916 112.431 81.916C110.639 81.888 109.043 81.874 107.643 81.874C106.999 81.874 106.173 81.874 105.165 81.874C104.157 81.874 103.065 81.888 101.889 81.916C100.741 81.916 99.5651 81.93 98.3611 81.958C97.1851 81.958 96.0511 81.972 94.9591 82V81.16C95.9111 81.104 96.6251 80.992 97.1011 80.824C97.5771 80.656 97.8851 80.32 98.0251 79.816C98.1931 79.312 98.2771 78.556 98.2771 77.548V56.716C98.2771 55.68 98.1931 54.924 98.0251 54.448C97.8851 53.944 97.5631 53.608 97.0591 53.44C96.5831 53.244 95.8831 53.132 94.9591 53.104V52.264C96.0511 52.292 97.1851 52.32 98.3611 52.348C99.5651 52.348 100.741 52.362 101.889 52.39C103.065 52.39 104.157 52.39 105.165 52.39C106.173 52.39 106.999 52.39 107.643 52.39C108.931 52.39 110.387 52.39 112.011 52.39C113.663 52.362 115.133 52.32 116.421 52.264ZM109.449 66.628C109.449 66.628 109.449 66.768 109.449 67.048C109.449 67.328 109.449 67.468 109.449 67.468H101.847C101.847 67.468 101.847 67.328 101.847 67.048C101.847 66.768 101.847 66.628 101.847 66.628H109.449ZM110.667 61.084C110.555 62.68 110.499 63.898 110.499 64.738C110.527 65.578 110.541 66.348 110.541 67.048C110.541 67.748 110.555 68.518 110.583 69.358C110.611 70.198 110.681 71.416 110.793 73.012H109.827C109.687 72.088 109.505 71.206 109.281 70.366C109.057 69.498 108.651 68.798 108.063 68.266C107.503 67.734 106.621 67.468 105.417 67.468V66.628C106.313 66.628 107.013 66.446 107.517 66.082C108.049 65.718 108.455 65.242 108.735 64.654C109.015 64.066 109.211 63.464 109.323 62.848C109.463 62.204 109.589 61.616 109.701 61.084H110.667ZM143.729 86.41V88.888H124.199V86.41H143.729ZM161.692 52.264V53.104C160.74 53.132 160.012 53.244 159.508 53.44C159.032 53.608 158.71 53.944 158.542 54.448C158.374 54.924 158.29 55.68 158.29 56.716V77.716C158.29 78.668 158.36 79.382 158.5 79.858C158.668 80.334 158.976 80.656 159.424 80.824C159.9 80.964 160.572 81.034 161.44 81.034H164.17C165.374 81.034 166.382 80.866 167.194 80.53C168.034 80.194 168.734 79.69 169.294 79.018C169.854 78.346 170.288 77.478 170.596 76.414C170.904 75.35 171.142 74.104 171.31 72.676H172.276C172.192 73.572 172.15 74.748 172.15 76.204C172.15 76.764 172.164 77.59 172.192 78.682C172.248 79.746 172.332 80.852 172.444 82C171.016 81.944 169.406 81.916 167.614 81.916C165.822 81.888 164.226 81.874 162.826 81.874C162.182 81.874 161.356 81.874 160.348 81.874C159.34 81.874 158.248 81.888 157.072 81.916C155.924 81.916 154.748 81.93 153.544 81.958C152.368 81.958 151.234 81.972 150.142 82V81.16C151.094 81.104 151.808 80.992 152.284 80.824C152.76 80.656 153.068 80.32 153.208 79.816C153.376 79.312 153.46 78.556 153.46 77.548V56.716C153.46 55.68 153.376 54.924 153.208 54.448C153.068 53.944 152.746 53.608 152.242 53.44C151.766 53.244 151.066 53.132 150.142 53.104V52.264C150.786 52.292 151.612 52.32 152.62 52.348C153.656 52.376 154.762 52.39 155.938 52.39C157.002 52.39 158.052 52.376 159.088 52.348C160.152 52.32 161.02 52.292 161.692 52.264ZM198.009 86.41V88.888H178.479V86.41H198.009ZM218.996 51.676C220.844 51.676 222.342 51.956 223.49 52.516C224.638 53.048 225.688 53.678 226.64 54.406C227.004 54.686 227.284 54.826 227.48 54.826C228.012 54.826 228.362 53.972 228.53 52.264H229.496C229.44 53.328 229.398 54.616 229.37 56.128C229.342 57.612 229.328 59.6 229.328 62.092H228.362C228.166 60.748 227.9 59.502 227.564 58.354C227.256 57.206 226.71 56.226 225.926 55.414C225.17 54.518 224.176 53.818 222.944 53.314C221.74 52.81 220.508 52.558 219.248 52.558C217.792 52.558 216.504 52.922 215.384 53.65C214.264 54.35 213.312 55.358 212.528 56.674C211.772 57.99 211.184 59.544 210.764 61.336C210.372 63.1 210.176 65.046 210.176 67.174C210.176 72.214 210.946 75.91 212.486 78.262C214.054 80.586 216.406 81.748 219.542 81.748C220.438 81.748 221.208 81.622 221.852 81.37C222.524 81.118 223.056 80.866 223.448 80.614C223.924 80.278 224.232 79.956 224.372 79.648C224.512 79.312 224.582 78.878 224.582 78.346V74.272C224.582 73.068 224.47 72.186 224.246 71.626C224.05 71.038 223.644 70.646 223.028 70.45C222.412 70.226 221.516 70.1 220.34 70.072V69.232C220.872 69.26 221.502 69.288 222.23 69.316C222.958 69.316 223.714 69.33 224.498 69.358C225.31 69.358 226.038 69.358 226.682 69.358C227.69 69.358 228.6 69.344 229.412 69.316C230.252 69.288 230.938 69.26 231.47 69.232V70.072C230.882 70.1 230.434 70.198 230.126 70.366C229.846 70.534 229.65 70.87 229.538 71.374C229.454 71.878 229.412 72.648 229.412 73.684V82H228.572C228.544 81.524 228.432 81.006 228.236 80.446C228.068 79.886 227.802 79.606 227.438 79.606C227.242 79.606 227.032 79.648 226.808 79.732C226.612 79.816 226.262 80.026 225.758 80.362C224.778 81.034 223.756 81.58 222.692 82C221.628 82.392 220.424 82.588 219.08 82.588C216.084 82.588 213.522 82 211.394 80.824C209.266 79.62 207.642 77.898 206.522 75.658C205.43 73.39 204.884 70.702 204.884 67.594C204.884 64.346 205.486 61.532 206.69 59.152C207.922 56.772 209.588 54.938 211.688 53.65C213.816 52.334 216.252 51.676 218.996 51.676ZM257.252 86.41V88.888H237.722V86.41H257.252ZM276.223 52.096L286.471 78.472C286.863 79.508 287.311 80.208 287.815 80.572C288.347 80.936 288.837 81.132 289.285 81.16V82C288.613 81.944 287.815 81.916 286.891 81.916C285.995 81.888 285.085 81.874 284.161 81.874C282.985 81.874 281.893 81.888 280.885 81.916C279.877 81.916 279.065 81.944 278.449 82V81.16C279.877 81.104 280.773 80.866 281.137 80.446C281.529 79.998 281.445 79.06 280.885 77.632L273.325 57.22L273.997 56.464L267.025 74.692C266.521 75.952 266.213 77.002 266.101 77.842C266.017 78.682 266.087 79.34 266.311 79.816C266.563 80.292 266.983 80.628 267.571 80.824C268.159 81.02 268.887 81.132 269.755 81.16V82C268.915 81.944 268.061 81.916 267.193 81.916C266.353 81.888 265.555 81.874 264.799 81.874C264.127 81.874 263.525 81.888 262.993 81.916C262.489 81.916 262.027 81.944 261.607 82V81.16C262.195 81.02 262.783 80.67 263.371 80.11C263.959 79.55 264.519 78.598 265.051 77.254L274.795 52.096C275.019 52.096 275.257 52.096 275.509 52.096C275.761 52.096 275.999 52.096 276.223 52.096ZM280.633 69.904V70.744H268.117L268.537 69.904H280.633ZM313.46 86.41V88.888H293.93V86.41H313.46ZM331.338 52.264V53.104C330.414 53.132 329.714 53.244 329.238 53.44C328.762 53.608 328.44 53.944 328.272 54.448C328.104 54.924 328.02 55.68 328.02 56.716V77.548C328.02 78.556 328.104 79.312 328.272 79.816C328.44 80.32 328.762 80.656 329.238 80.824C329.714 80.992 330.414 81.104 331.338 81.16V82C330.666 81.944 329.812 81.916 328.776 81.916C327.768 81.888 326.732 81.874 325.668 81.874C324.492 81.874 323.386 81.888 322.35 81.916C321.342 81.916 320.516 81.944 319.872 82V81.16C320.824 81.104 321.538 80.992 322.014 80.824C322.49 80.656 322.798 80.32 322.938 79.816C323.106 79.312 323.19 78.556 323.19 77.548V56.716C323.19 55.68 323.106 54.924 322.938 54.448C322.798 53.944 322.476 53.608 321.972 53.44C321.496 53.244 320.796 53.132 319.872 53.104V52.264C320.516 52.292 321.342 52.32 322.35 52.348C323.386 52.376 324.492 52.39 325.668 52.39C326.732 52.39 327.768 52.376 328.776 52.348C329.812 52.32 330.666 52.292 331.338 52.264Z" fill="black"/>
<rect x="0.5" y="0.5" width="369" height="129" stroke="black"/>
</svg>
