<svg width="292" height="38" viewBox="0 0 292 38" fill="none" xmlns="http://www.w3.org/2000/svg">
<path d="M22.184 1.264V2.104L6.224 30.034H13.196C14.372 30.034 15.394 29.894 16.262 29.614C17.158 29.306 17.9 28.844 18.488 28.228C19.104 27.584 19.594 26.73 19.958 25.666C20.322 24.602 20.574 23.3 20.714 21.76H21.68C21.596 22.656 21.554 23.832 21.554 25.288C21.554 25.848 21.568 26.66 21.596 27.724C21.652 28.788 21.736 29.88 21.848 31C20.812 30.944 19.678 30.916 18.446 30.916C17.214 30.888 15.982 30.874 14.75 30.874C13.546 30.874 12.426 30.874 11.39 30.874C9.682 30.874 7.89 30.888 6.014 30.916C4.138 30.916 2.374 30.944 0.722 31V30.16L16.766 2.23H9.794C8.562 2.23 7.512 2.37 6.644 2.65C5.804 2.93 5.09 3.378 4.502 3.994C3.942 4.61 3.494 5.45 3.158 6.514C2.822 7.55 2.57 8.824 2.402 10.336H1.436C1.492 9.916 1.52 9.412 1.52 8.824C1.548 8.236 1.562 7.62 1.562 6.976C1.562 6.416 1.534 5.604 1.478 4.54C1.45 3.476 1.38 2.384 1.268 1.264C2.276 1.292 3.368 1.32 4.544 1.348C5.748 1.376 6.938 1.39 8.114 1.39C9.318 1.39 10.41 1.39 11.39 1.39C13.098 1.39 14.918 1.39 16.85 1.39C18.782 1.362 20.56 1.32 22.184 1.264ZM48.5465 35.41V37.888H29.0165V35.41H48.5465ZM76.4211 1.264C76.3091 2.328 76.2251 3.364 76.1691 4.372C76.1411 5.352 76.1271 6.108 76.1271 6.64C76.1271 7.172 76.1411 7.676 76.1691 8.152C76.1971 8.628 76.2251 9.02 76.2531 9.328H75.2871C75.0911 7.536 74.7831 6.122 74.3631 5.086C73.9711 4.05 73.3691 3.322 72.5571 2.902C71.7731 2.454 70.6671 2.23 69.2391 2.23H66.3411C65.4451 2.23 64.7591 2.314 64.2831 2.482C63.8351 2.622 63.5271 2.93 63.3591 3.406C63.1911 3.854 63.1071 4.568 63.1071 5.548V26.716C63.1071 27.668 63.1911 28.382 63.3591 28.858C63.5271 29.334 63.8351 29.656 64.2831 29.824C64.7591 29.964 65.4451 30.034 66.3411 30.034H69.0711C70.6671 30.034 71.9271 29.782 72.8511 29.278C73.8031 28.774 74.5171 27.948 74.9931 26.8C75.4971 25.652 75.8751 24.084 76.1271 22.096H77.0931C77.0091 22.908 76.9671 23.972 76.9671 25.288C76.9671 25.848 76.9811 26.66 77.0091 27.724C77.0651 28.788 77.1491 29.88 77.2611 31C75.8331 30.944 74.2231 30.916 72.4311 30.916C70.6391 30.888 69.0431 30.874 67.6431 30.874C66.9991 30.874 66.1731 30.874 65.1651 30.874C64.1571 30.874 63.0651 30.888 61.8891 30.916C60.7411 30.916 59.5651 30.93 58.3611 30.958C57.1851 30.958 56.0511 30.972 54.9591 31V30.16C55.9111 30.104 56.6251 29.992 57.1011 29.824C57.5771 29.656 57.8851 29.32 58.0251 28.816C58.1931 28.312 58.2771 27.556 58.2771 26.548V5.716C58.2771 4.68 58.1931 3.924 58.0251 3.448C57.8851 2.944 57.5631 2.608 57.0591 2.44C56.5831 2.244 55.8831 2.132 54.9591 2.104V1.264C56.0511 1.292 57.1851 1.32 58.3611 1.348C59.5651 1.348 60.7411 1.362 61.8891 1.39C63.0651 1.39 64.1571 1.39 65.1651 1.39C66.1731 1.39 66.9991 1.39 67.6431 1.39C68.9311 1.39 70.3871 1.39 72.0111 1.39C73.6631 1.362 75.1331 1.32 76.4211 1.264ZM69.4491 15.628C69.4491 15.628 69.4491 15.768 69.4491 16.048C69.4491 16.328 69.4491 16.468 69.4491 16.468H61.8471C61.8471 16.468 61.8471 16.328 61.8471 16.048C61.8471 15.768 61.8471 15.628 61.8471 15.628H69.4491ZM70.6671 10.084C70.5551 11.68 70.4991 12.898 70.4991 13.738C70.5271 14.578 70.5411 15.348 70.5411 16.048C70.5411 16.748 70.5551 17.518 70.5831 18.358C70.6111 19.198 70.6811 20.416 70.7931 22.012H69.8271C69.6871 21.088 69.5051 20.206 69.2811 19.366C69.0571 18.498 68.6511 17.798 68.0631 17.266C67.5031 16.734 66.6211 16.468 65.4171 16.468V15.628C66.3131 15.628 67.0131 15.446 67.5171 15.082C68.0491 14.718 68.4551 14.242 68.7351 13.654C69.0151 13.066 69.2111 12.464 69.3231 11.848C69.4631 11.204 69.5891 10.616 69.7011 10.084H70.6671ZM103.729 35.41V37.888H84.199V35.41H103.729ZM121.692 1.264V2.104C120.74 2.132 120.012 2.244 119.508 2.44C119.032 2.608 118.71 2.944 118.542 3.448C118.374 3.924 118.29 4.68 118.29 5.716V26.716C118.29 27.668 118.36 28.382 118.5 28.858C118.668 29.334 118.976 29.656 119.424 29.824C119.9 29.964 120.572 30.034 121.44 30.034H124.17C125.374 30.034 126.382 29.866 127.194 29.53C128.034 29.194 128.734 28.69 129.294 28.018C129.854 27.346 130.288 26.478 130.596 25.414C130.904 24.35 131.142 23.104 131.31 21.676H132.276C132.192 22.572 132.15 23.748 132.15 25.204C132.15 25.764 132.164 26.59 132.192 27.682C132.248 28.746 132.332 29.852 132.444 31C131.016 30.944 129.406 30.916 127.614 30.916C125.822 30.888 124.226 30.874 122.826 30.874C122.182 30.874 121.356 30.874 120.348 30.874C119.34 30.874 118.248 30.888 117.072 30.916C115.924 30.916 114.748 30.93 113.544 30.958C112.368 30.958 111.234 30.972 110.142 31V30.16C111.094 30.104 111.808 29.992 112.284 29.824C112.76 29.656 113.068 29.32 113.208 28.816C113.376 28.312 113.46 27.556 113.46 26.548V5.716C113.46 4.68 113.376 3.924 113.208 3.448C113.068 2.944 112.746 2.608 112.242 2.44C111.766 2.244 111.066 2.132 110.142 2.104V1.264C110.786 1.292 111.612 1.32 112.62 1.348C113.656 1.376 114.762 1.39 115.938 1.39C117.002 1.39 118.052 1.376 119.088 1.348C120.152 1.32 121.02 1.292 121.692 1.264ZM158.009 35.41V37.888H138.479V35.41H158.009ZM178.996 0.675997C180.844 0.675997 182.342 0.955998 183.49 1.516C184.638 2.048 185.688 2.678 186.64 3.406C187.004 3.686 187.284 3.826 187.48 3.826C188.012 3.826 188.362 2.972 188.53 1.264H189.496C189.44 2.328 189.398 3.616 189.37 5.128C189.342 6.612 189.328 8.6 189.328 11.092H188.362C188.166 9.748 187.9 8.502 187.564 7.354C187.256 6.206 186.71 5.226 185.926 4.414C185.17 3.518 184.176 2.818 182.944 2.314C181.74 1.81 180.508 1.558 179.248 1.558C177.792 1.558 176.504 1.922 175.384 2.65C174.264 3.35 173.312 4.358 172.528 5.674C171.772 6.99 171.184 8.544 170.764 10.336C170.372 12.1 170.176 14.046 170.176 16.174C170.176 21.214 170.946 24.91 172.486 27.262C174.054 29.586 176.406 30.748 179.542 30.748C180.438 30.748 181.208 30.622 181.852 30.37C182.524 30.118 183.056 29.866 183.448 29.614C183.924 29.278 184.232 28.956 184.372 28.648C184.512 28.312 184.582 27.878 184.582 27.346V23.272C184.582 22.068 184.47 21.186 184.246 20.626C184.05 20.038 183.644 19.646 183.028 19.45C182.412 19.226 181.516 19.1 180.34 19.072V18.232C180.872 18.26 181.502 18.288 182.23 18.316C182.958 18.316 183.714 18.33 184.498 18.358C185.31 18.358 186.038 18.358 186.682 18.358C187.69 18.358 188.6 18.344 189.412 18.316C190.252 18.288 190.938 18.26 191.47 18.232V19.072C190.882 19.1 190.434 19.198 190.126 19.366C189.846 19.534 189.65 19.87 189.538 20.374C189.454 20.878 189.412 21.648 189.412 22.684V31H188.572C188.544 30.524 188.432 30.006 188.236 29.446C188.068 28.886 187.802 28.606 187.438 28.606C187.242 28.606 187.032 28.648 186.808 28.732C186.612 28.816 186.262 29.026 185.758 29.362C184.778 30.034 183.756 30.58 182.692 31C181.628 31.392 180.424 31.588 179.08 31.588C176.084 31.588 173.522 31 171.394 29.824C169.266 28.62 167.642 26.898 166.522 24.658C165.43 22.39 164.884 19.702 164.884 16.594C164.884 13.346 165.486 10.532 166.69 8.152C167.922 5.772 169.588 3.938 171.688 2.65C173.816 1.334 176.252 0.675997 178.996 0.675997ZM217.252 35.41V37.888H197.722V35.41H217.252ZM236.223 1.096L246.471 27.472C246.863 28.508 247.311 29.208 247.815 29.572C248.347 29.936 248.837 30.132 249.285 30.16V31C248.613 30.944 247.815 30.916 246.891 30.916C245.995 30.888 245.085 30.874 244.161 30.874C242.985 30.874 241.893 30.888 240.885 30.916C239.877 30.916 239.065 30.944 238.449 31V30.16C239.877 30.104 240.773 29.866 241.137 29.446C241.529 28.998 241.445 28.06 240.885 26.632L233.325 6.22L233.997 5.464L227.025 23.692C226.521 24.952 226.213 26.002 226.101 26.842C226.017 27.682 226.087 28.34 226.311 28.816C226.563 29.292 226.983 29.628 227.571 29.824C228.159 30.02 228.887 30.132 229.755 30.16V31C228.915 30.944 228.061 30.916 227.193 30.916C226.353 30.888 225.555 30.874 224.799 30.874C224.127 30.874 223.525 30.888 222.993 30.916C222.489 30.916 222.027 30.944 221.607 31V30.16C222.195 30.02 222.783 29.67 223.371 29.11C223.959 28.55 224.519 27.598 225.051 26.254L234.795 1.096C235.019 1.096 235.257 1.096 235.509 1.096C235.761 1.096 235.999 1.096 236.223 1.096ZM240.633 18.904V19.744H228.117L228.537 18.904H240.633ZM273.46 35.41V37.888H253.93V35.41H273.46ZM291.338 1.264V2.104C290.414 2.132 289.714 2.244 289.238 2.44C288.762 2.608 288.44 2.944 288.272 3.448C288.104 3.924 288.02 4.68 288.02 5.716V26.548C288.02 27.556 288.104 28.312 288.272 28.816C288.44 29.32 288.762 29.656 289.238 29.824C289.714 29.992 290.414 30.104 291.338 30.16V31C290.666 30.944 289.812 30.916 288.776 30.916C287.768 30.888 286.732 30.874 285.668 30.874C284.492 30.874 283.386 30.888 282.35 30.916C281.342 30.916 280.516 30.944 279.872 31V30.16C280.824 30.104 281.538 29.992 282.014 29.824C282.49 29.656 282.798 29.32 282.938 28.816C283.106 28.312 283.19 27.556 283.19 26.548V5.716C283.19 4.68 283.106 3.924 282.938 3.448C282.798 2.944 282.476 2.608 281.972 2.44C281.496 2.244 280.796 2.132 279.872 2.104V1.264C280.516 1.292 281.342 1.32 282.35 1.348C283.386 1.376 284.492 1.39 285.668 1.39C286.732 1.39 287.768 1.376 288.776 1.348C289.812 1.32 290.666 1.292 291.338 1.264Z" fill="black"/>
</svg>
