<svg width="25" height="29" viewBox="0 0 25 29" fill="none" xmlns="http://www.w3.org/2000/svg">
<path d="M24.2852 3.56928L24.2439 3.54091L19.0232 0.713425L13.3884 8.97279L15.9808 12.773C15.9033 14.2061 15.3504 15.5582 14.4269 16.5734C13.5035 17.5886 12.2735 18.1963 10.9698 18.2816L7.51307 15.4316L0 21.626L2.55062 27.3173L2.57208 27.3653L2.59795 27.4107C2.73406 27.6518 2.92404 27.8505 3.14981 27.9881C3.37557 28.1257 3.6296 28.1974 3.88772 28.1965H5.23484C7.83044 28.1965 10.4006 27.6345 12.7986 26.5425C15.1967 25.4506 17.3756 23.8501 19.2109 21.8324C21.0463 19.8147 22.5022 17.4194 23.4955 14.7832C24.4888 12.147 25 9.32155 25 6.46814V4.98716C25.0008 4.70341 24.9356 4.42414 24.8104 4.17595C24.6853 3.92777 24.5045 3.71891 24.2852 3.56928V3.56928ZM23.0707 6.46814C23.0707 17.2797 15.0695 26.0756 5.23484 26.0756H4.1448L2.43824 22.2671L7.51343 18.0826L10.339 20.4122H10.6606C12.5851 20.4099 14.4301 19.5684 15.791 18.0724C17.1518 16.5764 17.9173 14.548 17.9194 12.4324V12.0789L15.8003 8.97272L19.6063 3.39377L23.0707 5.27017V6.46814Z" fill="black"/>
</svg>
