<svg width="41" height="32" viewBox="0 0 41 32" fill="none" xmlns="http://www.w3.org/2000/svg">
<path d="M21.1688 0.688963C20.9282 0.525051 20.6319 0.436035 20.3268 0.436035C20.0217 0.436035 19.7253 0.525051 19.4847 0.688963L0 13.965L1.68542 15.8276L4.0678 14.2044V28.8714C4.06923 29.4995 4.3554 30.1015 4.86367 30.5457C5.37193 30.9898 6.06087 31.2398 6.77966 31.2411H33.8983C34.6171 31.2398 35.306 30.9898 35.8143 30.5457C36.3226 30.1015 36.6087 29.4995 36.6102 28.8714V14.215L38.9925 15.8383L40.678 13.9757L21.1688 0.688963ZM23.0508 28.8714H17.6271V19.3928H23.0508V28.8714ZM25.7627 28.8714V19.3928C25.762 18.7645 25.4761 18.1621 24.9676 17.7178C24.4592 17.2736 23.7699 17.0237 23.0508 17.0231H17.6271C16.9081 17.0237 16.2188 17.2736 15.7103 17.7178C15.2019 18.1621 14.916 18.7645 14.9153 19.3928V28.8714H6.77966V12.3572L20.339 3.12735L33.8983 12.3691V28.8714H25.7627Z" fill="black"/>
</svg>
