<svg width="41" height="35" viewBox="0 0 41 35" fill="none" xmlns="http://www.w3.org/2000/svg">
<path d="M20.2312 9.28571C18.353 9.28571 16.517 9.76747 14.9554 10.6701C13.3937 11.5727 12.1765 12.8556 11.4578 14.3565C10.739 15.8575 10.551 17.5091 10.9174 19.1025C11.2838 20.6959 12.1882 22.1596 13.5163 23.3084C14.8444 24.4572 16.5365 25.2395 18.3786 25.5564C20.2207 25.8734 22.1301 25.7107 23.8653 25.089C25.6005 24.4673 27.0836 23.4144 28.1271 22.0636C29.1706 20.7128 29.7275 19.1246 29.7275 17.5C29.7275 15.3214 28.727 13.2321 26.9461 11.6916C25.1652 10.1511 22.7498 9.28571 20.2312 9.28571ZM20.2312 23.5714C18.843 23.5714 17.4859 23.2153 16.3317 22.5482C15.1774 21.8811 14.2778 20.9328 13.7465 19.8234C13.2153 18.714 13.0763 17.4933 13.3471 16.3155C13.6179 15.1378 14.2864 14.056 15.268 13.2069C16.2497 12.3577 17.5003 11.7795 18.8619 11.5452C20.2234 11.311 21.6347 11.4312 22.9173 11.8907C24.1998 12.3503 25.296 13.1285 26.0673 14.1269C26.8386 15.1253 27.2502 16.2992 27.2502 17.5C27.2448 19.1088 26.5035 20.6503 25.1884 21.7879C23.8732 22.9255 22.0911 23.5667 20.2312 23.5714ZM29.3146 0H11.1478C8.19123 0 5.35574 1.01594 3.26512 2.82433C1.1745 4.63271 0 7.08541 0 9.64286V25.3571C0 27.9146 1.1745 30.3673 3.26512 32.1757C5.35574 33.9841 8.19123 35 11.1478 35H29.3146C32.2712 35 35.1067 33.9841 37.1973 32.1757C39.2879 30.3673 40.4624 27.9146 40.4624 25.3571V9.64286C40.4624 7.08541 39.2879 4.63271 37.1973 2.82433C35.1067 1.01594 32.2712 0 29.3146 0ZM37.9851 25.3571C37.9851 27.3463 37.0716 29.2539 35.4456 30.6604C33.8196 32.067 31.6142 32.8571 29.3146 32.8571H11.1478C8.84825 32.8571 6.64287 32.067 5.01683 30.6604C3.39079 29.2539 2.47729 27.3463 2.47729 25.3571V9.64286C2.47729 7.65373 3.39079 5.74608 5.01683 4.33956C6.64287 2.93303 8.84825 2.14286 11.1478 2.14286H29.3146C31.6142 2.14286 33.8196 2.93303 35.4456 4.33956C37.0716 5.74608 37.9851 7.65373 37.9851 9.64286V25.3571ZM33.0306 8.21429C33.0306 8.56747 32.9095 8.91272 32.6826 9.20638C32.4558 9.50004 32.1334 9.72891 31.7562 9.86407C31.3789 9.99923 30.9639 10.0346 30.5634 9.96569C30.1629 9.89679 29.7951 9.72671 29.5064 9.47698C29.2177 9.22724 29.0211 8.90906 28.9414 8.56266C28.8617 8.21627 28.9026 7.85722 29.0589 7.53092C29.2151 7.20463 29.4797 6.92574 29.8192 6.72952C30.1587 6.5333 30.5578 6.42857 30.9661 6.42857C31.5137 6.42857 32.0388 6.61671 32.4259 6.9516C32.8131 7.28648 33.0306 7.74068 33.0306 8.21429Z" fill="black"/>
</svg>
