<svg width="31" height="28" viewBox="0 0 31 28" fill="none" xmlns="http://www.w3.org/2000/svg">
<path d="M29.1634 2.85585L29.1138 2.82748L22.8445 0L16.0777 8.25936L19.1909 12.0595C19.0978 13.4927 18.4339 14.8448 17.3249 15.86C16.216 16.8752 14.7389 17.4829 13.1734 17.5682L9.02224 14.7182L0 20.9126L3.06297 26.6038L3.08874 26.6519L3.1198 26.6972C3.28326 26.9383 3.5114 27.1371 3.78252 27.2747C4.05363 27.4122 4.35869 27.484 4.66866 27.4831H6.28638C9.40337 27.4831 12.4898 26.9211 15.3696 25.8291C18.2493 24.7372 20.8659 23.1367 23.0699 21.119C25.2739 19.1013 27.0223 16.706 28.2151 14.0698C29.4079 11.4336 30.0218 8.60812 30.0218 5.75472V4.27374C30.0228 3.98998 29.9445 3.71072 29.7942 3.46253C29.6439 3.21434 29.4268 3.00549 29.1634 2.85585ZM27.705 5.75472C27.705 16.5663 18.0966 25.3622 6.28638 25.3622H4.97738L2.92802 21.5537L9.02268 17.3692L12.4159 19.6988H12.802C15.1131 19.6964 17.3288 18.8549 18.963 17.3589C20.5972 15.8629 21.5164 13.8346 21.519 11.7189V11.3655L18.9742 8.2593L23.5447 2.68035L27.705 4.55674V5.75472Z" fill="black"/>
</svg>
